<?xml version="1.0" encoding="utf-8"?>
<!-- Generator: Adobe Illustrator 16.0.0, SVG Export Plug-In . SVG Version: 6.00 Build 0)  -->
<!DOCTYPE svg PUBLIC "-//W3C//DTD SVG 1.1 Basic//EN" "http://www.w3.org/Graphics/SVG/1.1/DTD/svg11-basic.dtd">
<svg version="1.1" baseProfile="basic" xmlns="http://www.w3.org/2000/svg" xmlns:xlink="http://www.w3.org/1999/xlink" x="0px"
	 y="0px" width="510.24px" height="211.2px" viewBox="0 0 510.24 211.2" xml:space="preserve">
<g id="MARINA_SANDBERG_PAPADAKI">
	<g>
		<path d="M53.602,119.099V97.38l7.74,14.49l7.739-14.49v21.719h-0.9V100.95l-6.839,12.84l-6.84-12.84v18.149H53.602z"/>
		<path d="M82.191,97.59l8.04,21.359l-0.84,0.301l-2.19-5.82h-10.02l-2.19,5.82l-0.84-0.301L82.191,97.59z M77.511,112.53h9.33
			l-4.649-12.39L77.511,112.53z"/>
		<path d="M95.301,119.099V98.1c0.78-0.06,1.65-0.09,2.31-0.09c6.78,0,10.17,3.54,10.17,7.02c0,2.55-1.77,5.069-5.28,6.27
			l5.729,7.53l-0.72,0.539l-5.94-7.799c-1.14,0.3-2.49,0.449-3.96,0.449c-0.45,0-0.9-0.029-1.41-0.06v7.14H95.301z M96.201,98.94
			v12.119c0.48,0.03,0.99,0.061,1.41,0.061c6.18,0,9.27-3.03,9.27-6.09c0-3.06-3.09-6.12-9.27-6.12
			C97.19,98.91,96.71,98.91,96.201,98.94z"/>
		<path d="M114.081,98.1v20.999h-0.9V98.1H114.081z"/>
		<path d="M119.781,119.099V97.23l11.609,19.439V98.1h0.9v21.869l-11.609-19.439v18.569H119.781z"/>
		<path d="M145.4,97.59l8.04,21.359l-0.84,0.301l-2.19-5.82h-10.02l-2.19,5.82l-0.84-0.301L145.4,97.59z M140.72,112.53h9.33
			l-4.649-12.39L140.72,112.53z"/>
		<path d="M170.27,115.559c0.9,2.04,2.82,3,4.98,3c3.03,0,5.34-2.01,5.34-4.859c0-2.521-2.94-3.84-5.34-4.68
			c-2.7-0.931-5.94-2.43-5.94-5.521c0-3.39,2.73-5.76,6.24-5.76c2.52,0,4.8,1.14,5.82,3.54l-0.84,0.36c-0.9-2.04-2.82-3-4.98-3
			c-3.03,0-5.34,2.01-5.34,4.859c0,2.521,2.94,3.84,5.34,4.681c2.7,0.93,5.94,2.43,5.94,5.52c0,3.39-2.73,5.76-6.24,5.76
			c-2.55,0-4.8-1.141-5.82-3.54L170.27,115.559z"/>
		<path d="M193.85,97.59l8.04,21.359l-0.84,0.301l-2.19-5.82h-10.02l-2.19,5.82l-0.84-0.301L193.85,97.59z M189.169,112.53h9.33
			l-4.65-12.39L189.169,112.53z"/>
		<path d="M206.959,119.099V97.23l11.609,19.439V98.1h0.9v21.869l-11.609-19.439v18.569H206.959z"/>
		<path d="M237.948,108.6c0,5.31-3.39,10.589-10.169,10.589c-0.66,0-1.83-0.03-2.61-0.09V98.1c0.78-0.06,1.95-0.12,2.61-0.12
			C234.559,97.98,237.948,103.26,237.948,108.6z M237.048,108.6c0-4.86-3.09-9.72-9.27-9.72c-0.42,0-1.23,0.03-1.71,0.06v19.319
			c0.51,0.03,1.29,0.03,1.71,0.03C233.958,118.29,237.048,113.459,237.048,108.6z"/>
		<path d="M245.508,98.01c5.58,0,8.07,2.25,8.07,5.19c0,2.1-1.29,3.87-4.05,4.71c3.72,0.78,5.85,2.76,5.85,5.43
			c0,3.54-3.69,5.79-9.87,5.79c-0.66,0-1.53-0.03-2.31-0.09V98.1C243.979,98.04,244.849,98.01,245.508,98.01z M244.099,98.94v8.58
			h1.71c4.77,0,6.87-1.92,6.87-4.32c0-2.46-2.19-4.29-7.17-4.29C245.088,98.91,244.608,98.91,244.099,98.94z M254.478,113.339
			c0-3.06-3.39-4.92-9-4.92h-1.38v9.779c0.51,0.03,0.99,0.03,1.41,0.03C251.088,118.229,254.478,116.399,254.478,113.339z"/>
		<path d="M260.478,119.099V98.1h11.881V99h-10.98v7.919h9v0.9h-9v10.379h10.98v0.9H260.478z"/>
		<path d="M277.608,119.099V98.1c0.779-0.06,1.65-0.09,2.311-0.09c6.779,0,10.168,3.54,10.168,7.02c0,2.55-1.77,5.069-5.279,6.27
			l5.73,7.53l-0.721,0.539l-5.939-7.799c-1.141,0.3-2.49,0.449-3.959,0.449c-0.451,0-0.9-0.029-1.41-0.06v7.14H277.608z
			 M278.509,98.94v12.119c0.479,0.03,0.99,0.061,1.41,0.061c6.18,0,9.27-3.03,9.27-6.09c0-3.06-3.09-6.12-9.27-6.12
			C279.499,98.91,279.019,98.91,278.509,98.94z"/>
		<path d="M307.519,109.86v9.239c-0.781,0.06-1.951,0.09-2.611,0.09c-6.779,0-10.168-5.279-10.168-10.589
			c0-5.34,3.389-10.62,10.168-10.62c0.66,0,1.83,0.06,2.611,0.12v0.93c-1.021-0.12-2.191-0.15-2.611-0.15
			c-6.18,0-9.27,4.86-9.27,9.72c0,4.859,3.09,9.689,9.27,9.689c0.42,0,1.201,0,1.711-0.03v-8.399H307.519z"/>
		<path d="M324.347,119.099V98.1c0.781-0.06,1.65-0.09,2.311-0.09c6.779,0,10.17,3.54,10.17,7.02c0,3.51-3.391,6.989-10.17,6.989
			c-0.449,0-0.9-0.029-1.41-0.06v7.14H324.347z M325.247,98.94v12.119c0.48,0.03,0.99,0.061,1.41,0.061c6.18,0,9.27-3.03,9.27-6.09
			c0-3.06-3.09-6.12-9.27-6.12C326.237,98.91,325.757,98.91,325.247,98.94z"/>
		<path d="M346.577,97.59l8.039,21.359l-0.84,0.301l-2.189-5.82h-10.02l-2.189,5.82l-0.84-0.301L346.577,97.59z M341.897,112.53
			h9.33l-4.65-12.39L341.897,112.53z"/>
		<path d="M359.687,119.099V98.1c0.781-0.06,1.65-0.09,2.311-0.09c6.779,0,10.17,3.54,10.17,7.02c0,3.51-3.391,6.989-10.17,6.989
			c-0.449,0-0.9-0.029-1.41-0.06v7.14H359.687z M360.587,98.94v12.119c0.48,0.03,0.99,0.061,1.41,0.061c6.18,0,9.27-3.03,9.27-6.09
			c0-3.06-3.09-6.12-9.27-6.12C361.577,98.91,361.097,98.91,360.587,98.94z"/>
		<path d="M381.917,97.59l8.039,21.359l-0.84,0.301l-2.189-5.82h-10.02l-2.189,5.82l-0.84-0.301L381.917,97.59z M377.237,112.53
			h9.33l-4.65-12.39L377.237,112.53z"/>
		<path d="M407.806,108.6c0,5.31-3.389,10.589-10.168,10.589c-0.66,0-1.83-0.03-2.611-0.09V98.1c0.781-0.06,1.951-0.12,2.611-0.12
			C404.417,97.98,407.806,103.26,407.806,108.6z M406.907,108.6c0-4.86-3.09-9.72-9.27-9.72c-0.42,0-1.23,0.03-1.711,0.06v19.319
			c0.51,0.03,1.291,0.03,1.711,0.03C403.817,118.29,406.907,113.459,406.907,108.6z"/>
		<path d="M419.116,97.59l8.039,21.359l-0.84,0.301l-2.189-5.82h-10.02l-2.189,5.82l-0.84-0.301L419.116,97.59z M414.437,112.53
			h9.33l-4.65-12.39L414.437,112.53z"/>
		<path d="M445.245,119.399l-10.408-10.68l-1.711,1.59v8.79h-0.9V98.1h0.9v10.979l12.15-11.31l0.6,0.66l-10.41,9.659l10.439,10.71
			L445.245,119.399z"/>
		<path d="M451.907,98.1v20.999h-0.9V98.1H451.907z"/>
	</g>
</g>
<g id="msp" opacity="0.502">
	<g>
		<path d="M179.229,54.9c0.586,0,0.887,0.106,0.903,0.317c0.016,0.212-0.106,0.61-0.366,1.196c-0.033,0.033-0.065,0.082-0.098,0.146
			c-0.456,1.042-1.099,2.319-1.929,3.833s-1.668,3.02-2.515,4.517c-1.302,2.312-2.148,3.906-2.539,4.785
			c4.883-5.501,10.962-11.523,18.237-18.066s13.761-11.946,19.458-16.211c6.543-4.72,10.84-7.08,12.891-7.08
			c0.423,0,0.749,0.098,0.977,0.293c0.651,0.261,0.977,0.847,0.977,1.758c0,0.163-0.057,0.61-0.171,1.343
			c-0.114,0.732-1.099,2.661-2.954,5.786c-3.19,5.273-6.966,11.101-11.328,17.48c-2.8,4.102-5.233,7.756-7.3,10.962
			c-2.067,3.207-3.264,5.412-3.589,6.616c1.627-0.879,3.76-2.1,6.396-3.662c5.338-3.255,10.84-6.233,16.504-8.936
			c3.027-1.367,5.306-2.051,6.836-2.051c0.293,0,0.553,0.017,0.781,0.049c1.399,0.326,2.1,1.416,2.1,3.271v0.244
			c0,0.391-0.065,0.977-0.195,1.758c-0.13,0.977-0.244,2.067-0.342,3.271c-0.033,0.456-0.049,0.896-0.049,1.318
			c0,0.716,0.049,1.384,0.146,2.002c0.358,1.205,1.367,1.807,3.027,1.807c0.391,0,1.286-0.089,2.686-0.269
			c1.399-0.179,3.703-0.944,6.909-2.295c3.206-1.351,6.25-2.856,9.131-4.517s5.021-3.092,6.421-4.297
			c0.423-0.325,0.724-0.48,0.903-0.464c0.179,0.017,0.269,0.122,0.269,0.317s-0.082,0.407-0.244,0.635
			c-1.465,1.433-4.265,3.329-8.398,5.688c-4.134,2.36-8.35,4.224-12.646,5.591c-2.116,0.684-3.955,1.025-5.518,1.025
			c-1.628,0-2.962-0.374-4.004-1.123c-0.749-0.716-1.123-1.692-1.123-2.93c0-0.098,0.008-0.513,0.024-1.245
			c0.016-0.732,0.203-1.831,0.562-3.296c0.325-1.334,0.488-2.522,0.488-3.564c0-0.358-0.017-0.7-0.049-1.025
			c-0.098-0.651-0.537-0.977-1.318-0.977c-0.749,0-2.173,0.439-4.272,1.318s-4.997,2.409-8.691,4.59
			c-3.695,2.181-6.877,4.118-9.546,5.811c-1.726,1.074-2.914,1.791-3.564,2.148c-1.563,0.944-3.06,1.448-4.492,1.514
			c-0.944-0.033-1.498-0.261-1.66-0.684c-0.098-0.195-0.146-0.391-0.146-0.586c0-0.293,0.098-0.675,0.293-1.147
			c0.195-0.472,0.456-1.001,0.781-1.587l0.146-0.244c1.237-2.278,2.856-4.858,4.858-7.739s3.8-5.412,5.396-7.593
			c0.813-1.106,1.448-1.985,1.904-2.637c1.009-1.399,2.555-3.654,4.639-6.763c2.083-3.108,3.987-6.209,5.713-9.302
			c1.66-2.962,2.49-5.127,2.49-6.494v-0.146c-3.125,1.237-7.528,4.085-13.208,8.545c-5.681,4.46-11.32,9.261-16.919,14.404
			c-5.599,5.144-9.863,9.31-12.793,12.5c-0.716,0.749-1.433,1.514-2.148,2.295c-1.367,1.465-2.734,2.914-4.102,4.346
			c-0.358,0.391-0.765,0.879-1.221,1.465l-1.514,1.807c-0.879,0.911-1.546,1.481-2.002,1.709c-0.325,0.163-0.667,0.244-1.025,0.244
			c-0.163,0-0.342-0.017-0.537-0.049c-0.521-0.098-0.797-0.326-0.83-0.684v-0.293c0-0.293,0.082-0.643,0.244-1.05
			c0.163-0.407,0.358-0.806,0.586-1.196c0.065-0.098,0.114-0.195,0.146-0.293c0.619-1.042,1.221-2.034,1.807-2.979
			c0.326-0.488,0.586-0.895,0.781-1.221c0.814-1.367,1.677-2.946,2.588-4.736c0.912-1.725,1.807-3.369,2.686-4.932
			c0.423-0.716,0.749-1.367,0.977-1.953c0.293-0.749,0.618-1.334,0.977-1.758C177.877,55.112,178.447,54.9,179.229,54.9z"/>
		<path d="M261.943,72.283c-0.033-2.995-0.342-5.469-0.928-7.422c-0.553-1.823-0.83-3.825-0.83-6.006v-0.391
			c0.131-1.823,0.708-3.467,1.733-4.932s2.156-2.628,3.394-3.491c1.236-0.862,2.262-1.294,3.076-1.294
			c0.357,0.033,0.684,0.212,0.977,0.537c0.228,0.293,0.342,0.651,0.342,1.074v0.146c-0.195,1.823-1.091,3.784-2.686,5.884
			c-1.596,2.1-3.256,3.459-4.98,4.077c0.13,0.781,0.309,1.628,0.537,2.539c0.65,2.865,1.139,5.55,1.465,8.057
			c2.799-1.53,7.291-3.45,13.477-5.762c4.654-1.79,8.821-3.499,12.5-5.127c0.325-0.13,0.602-0.195,0.83-0.195
			c0.032,0,0.105,0.008,0.22,0.024c0.113,0.017,0.171,0.09,0.171,0.22c0,0.13-0.114,0.261-0.342,0.391
			c-3.516,1.66-7.292,3.239-11.328,4.736c-5.371,1.921-10.482,4.167-15.332,6.738c0,0.098-0.017,0.195-0.049,0.293
			c0,1.27-0.155,2.791-0.464,4.565c-0.31,1.774-1.018,3.638-2.124,5.591c-1.432,2.376-3.345,4.704-5.737,6.982
			c-2.393,2.278-4.826,4.02-7.3,5.225c-2.213,0.911-4.199,1.367-5.957,1.367c-0.977,0-1.741-0.31-2.295-0.928
			c-0.553-0.554-0.83-1.188-0.83-1.904v-0.146c0.293-1.953,1.864-4.33,4.712-7.129c2.849-2.8,5.998-5.477,9.448-8.032
			C257.094,75.416,259.86,73.52,261.943,72.283z M241.533,93.181v0.244c0,0.358,0.065,0.691,0.195,1.001
			c0.13,0.309,0.472,0.48,1.025,0.513h0.098c1.986,0,4.436-1.05,7.349-3.149c2.914-2.1,5.542-4.793,7.886-8.081
			c2.344-3.288,3.646-6.706,3.906-10.254c-1.563,1.042-3.938,2.808-7.129,5.298c-3.19,2.49-6.152,5.086-8.887,7.788
			C243.242,89.242,241.761,91.456,241.533,93.181z M261.797,59.441c1.465-0.684,2.808-1.994,4.028-3.931
			c1.221-1.937,1.896-3.703,2.026-5.298c-1.27,0.554-2.604,1.791-4.004,3.711c-1.367,1.888-2.051,3.695-2.051,5.42V59.441z"/>
		<path d="M293.877,56.853c1.529-0.977,3.06-1.774,4.59-2.393c1.529-0.618,3.206-0.928,5.029-0.928c3.32,0,5.68,0.781,7.08,2.344
			c1.302,1.53,1.953,3.435,1.953,5.713c0,0.13-0.024,0.838-0.073,2.124c-0.049,1.286-0.644,3.329-1.782,6.128
			c1.334-0.391,2.652-0.749,3.955-1.074c4.134-1.042,8.113-2.197,11.938-3.467c3.824-1.27,7.69-3.011,11.597-5.225
			c0.293-0.13,0.521-0.195,0.684-0.195c0.098,0,0.162,0.017,0.195,0.049c0.032,0.033,0.049,0.065,0.049,0.098
			c0,0.195-0.195,0.439-0.586,0.732c-2.832,1.986-6.641,3.768-11.426,5.347c-4.785,1.579-9.082,2.856-12.891,3.833
			c-1.855,0.521-3.305,0.944-4.346,1.27c-1.498,3.092-3.605,5.973-6.323,8.643c-2.719,2.669-5.314,4.004-7.788,4.004
			c-0.684,0-1.311-0.122-1.88-0.366c-0.57-0.244-0.854-0.757-0.854-1.538c0-1.66,0.968-3.255,2.905-4.785
			c1.937-1.53,4.077-2.873,6.421-4.028s4.28-2.01,5.811-2.563c0.423-0.553,0.928-1.741,1.514-3.564
			c0.488-1.79,0.732-3.45,0.732-4.98c0-3.678-1.563-6.022-4.688-7.031c-0.651-0.195-1.352-0.293-2.1-0.293
			c-2.702,0-5.859,1.433-9.473,4.297c-1.107,0.944-1.945,1.929-2.515,2.954c-0.57,1.025-1.181,2.401-1.831,4.126
			c-0.357,0.944-0.813,2.067-1.367,3.369c-6.738,14.388-15.674,30.094-26.807,47.118c-11.133,17.025-21.452,31.9-30.957,44.629
			c-0.618,0.846-1.383,1.871-2.295,3.076c-1.92,2.734-4.069,5.518-6.445,8.35c-2.376,2.832-4.524,4.623-6.445,5.371
			c-0.26,0.064-0.472,0.098-0.635,0.098c-0.195,0-0.325-0.049-0.391-0.146c-0.032-0.033-0.049-0.064-0.049-0.098
			c0-0.131,0.261-0.293,0.781-0.488c0.358-0.162,0.667-0.375,0.928-0.635c0.065-0.033,0.114-0.064,0.146-0.098
			c0.521-0.488,1.009-1.01,1.465-1.563l0.732-0.83c4.98-5.631,9.57-11.703,13.77-18.213c1.921-2.832,3.89-5.664,5.908-8.496
			c7.455-10.318,14.901-21.215,22.339-32.689c7.438-11.475,14.136-22.941,20.093-34.399c5.307-11.067,10.335-22.151,15.088-33.252
			l0.488-1.465c0.228-0.749,0.455-1.351,0.684-1.807c0.26-0.456,0.521-0.813,0.781-1.074c0.162-0.163,0.357-0.244,0.586-0.244
			c0.098,0,0.211,0.017,0.342,0.049c0.325,0.098,0.488,0.244,0.488,0.439s-0.049,0.439-0.146,0.732l-0.195,0.537
			c-0.619,2.051-1.514,4.427-2.686,7.129C294.935,53.826,294.234,55.616,293.877,56.853z M295.195,82
			c0,0.065,0.008,0.163,0.024,0.293c0.016,0.13,0.064,0.252,0.146,0.366c0.081,0.114,0.203,0.171,0.366,0.171
			c0.977,0,2.303-0.667,3.979-2.002c1.676-1.335,3.255-2.84,4.736-4.517c1.48-1.677,2.481-3.117,3.003-4.321
			c-1.693,0.619-3.476,1.498-5.347,2.637c-1.872,1.139-3.491,2.368-4.858,3.687S295.195,80.86,295.195,82z"/>
	</g>
</g>
</svg>
